<?xml version="1.0" encoding="UTF-8"?>
<svg id="Layer_2" data-name="Layer 2" xmlns="http://www.w3.org/2000/svg" xmlns:xlink="http://www.w3.org/1999/xlink" viewBox="0 0 136.73 120.06">
  <defs>
    <style>
      .cls-1 {
        fill: #0a4c81;
      }

      .cls-2 {
        fill: url(#linear-gradient);
        stroke: url(#linear-gradient-2);
      }

      .cls-2, .cls-3, .cls-4 {
        stroke-miterlimit: 10;
      }

      .cls-3 {
        fill: url(#linear-gradient-3);
        stroke: url(#linear-gradient-4);
      }

      .cls-4 {
        fill: url(#linear-gradient-5);
        stroke: url(#linear-gradient-6);
      }
    </style>
    <linearGradient id="linear-gradient" x1="37.6" y1="19.38" x2="37.6" y2="94.13" gradientUnits="userSpaceOnUse">
      <stop offset="0" stop-color="#24fffc"/>
      <stop offset="1" stop-color="#0272f1"/>
    </linearGradient>
    <linearGradient id="linear-gradient-2" x1="37.6" y1="18.88" x2="37.6" y2="94.63" gradientUnits="userSpaceOnUse">
      <stop offset="0" stop-color="#24fffc"/>
      <stop offset="1" stop-color="#0272f1"/>
    </linearGradient>
    <linearGradient id="linear-gradient-3" x1="67.8" x2="67.8" y2="100.18" xlink:href="#linear-gradient"/>
    <linearGradient id="linear-gradient-4" x1="67.8" x2="67.8" y2="100.68" xlink:href="#linear-gradient-2"/>
    <linearGradient id="linear-gradient-5" x1="128.92" y1="42.45" x2="128.92" y2="104.64" xlink:href="#linear-gradient"/>
    <linearGradient id="linear-gradient-6" x1="128.92" y1="41.95" x2="128.92" y2="105.14" xlink:href="#linear-gradient-2"/>
  </defs>
  <g id="Layer_2-2" data-name="Layer 2">
    <g>
      <g>
        <polygon class="cls-1" points="120.69 103.58 136.73 120.06 136.73 28.17 120.69 44.18 120.69 103.58"/>
        <polygon class="cls-1" points="120.69 16.01 120.69 33.87 136.73 16.95 136.73 0 120.69 16.01"/>
        <polygon class="cls-1" points="100.19 15.71 96.29 19.74 14.75 103.94 37.43 103.94 96.29 42.55 96.29 67.61 80.85 67.61 65.36 83.65 96.29 83.65 96.29 92.67 112.33 109.19 112.33 15.71 109.27 15.71 100.19 15.71"/>
        <polygon class="cls-1" points="16.04 31.62 51.34 31.62 24.5 60.49 24.5 83.14 88.8 15.71 0 15.71 0 109.19 16.04 92.7 16.04 31.62"/>
      </g>
      <g>
        <path class="cls-2" d="M31.02,59.35c-2.6,0-4.71,2.12-4.71,4.71s2.12,4.71,4.71,4.71,4.71-2.12,4.71-4.71c0-1.15-.43-2.19-1.11-3l30.54-32.81c.65.34,1.38.55,2.17.55,2.6,0,4.71-2.12,4.71-4.71s-2.12-4.71-4.71-4.71c-2.43,0-4.41,1.85-4.66,4.21H12.53c-.25-2.36-2.24-4.21-4.66-4.21-2.6,0-4.71,2.12-4.71,4.71,0,2.43,1.85,4.41,4.21,4.66v55.99c-2.36.25-4.21,2.24-4.21,4.66,0,2.6,2.12,4.71,4.71,4.71s4.71-2.12,4.71-4.71c0-2.43-1.85-4.41-4.21-4.66V28.76c2.2-.24,3.93-1.97,4.16-4.16h50.14c.13,1.24.74,2.33,1.65,3.1l-30.41,32.68c-.8-.63-1.79-1.01-2.89-1.01ZM11.58,89.42c0,2.05-1.67,3.71-3.71,3.71s-3.71-1.67-3.71-3.71,1.67-3.71,3.71-3.71,3.71,1.67,3.71,3.71ZM7.87,27.81c-2.05,0-3.71-1.67-3.71-3.71s1.67-3.71,3.71-3.71,3.71,1.67,3.71,3.71-1.67,3.71-3.71,3.71ZM63.62,24.09c0-2.05,1.67-3.71,3.71-3.71s3.71,1.67,3.71,3.71-1.67,3.71-3.71,3.71-3.71-1.67-3.71-3.71ZM31.02,67.78c-2.05,0-3.71-1.67-3.71-3.71s1.67-3.71,3.71-3.71,3.71,1.67,3.71,3.71-1.67,3.71-3.71,3.71Z"/>
        <path class="cls-3" d="M108.2,24.09c0-2.6-2.12-4.71-4.71-4.71s-4.71,2.12-4.71,4.71c0,.94.28,1.81.76,2.54L35.22,91.95c-.83-.74-1.92-1.21-3.12-1.21-2.6,0-4.71,2.12-4.71,4.71s2.12,4.71,4.71,4.71,4.71-2.12,4.71-4.71c0-1.04-.35-1.99-.92-2.77L100.15,27.42c.74.74,1.74,1.22,2.83,1.33v41.85c-2.2.24-3.93,1.97-4.16,4.16h-18.97v1h18.97c.24,2.2,1.97,3.93,4.16,4.16v13.7h1v-13.7c2.36-.25,4.21-2.24,4.21-4.66s-1.85-4.41-4.21-4.66V28.76c2.36-.25,4.21-2.24,4.21-4.66ZM32.11,99.18c-2.05,0-3.71-1.67-3.71-3.71s1.67-3.71,3.71-3.71,3.71,1.67,3.71,3.71-1.67,3.71-3.71,3.71ZM99.77,24.09c0-2.05,1.67-3.71,3.71-3.71s3.71,1.67,3.71,3.71-1.67,3.71-3.71,3.71-3.71-1.67-3.71-3.71ZM107.2,75.27c0,2.05-1.67,3.71-3.71,3.71s-3.71-1.67-3.71-3.71,1.67-3.71,3.71-3.71,3.71,1.67,3.71,3.71Z"/>
        <path class="cls-4" d="M129.42,95.26v-43.43c2.36-.25,4.21-2.24,4.21-4.66,0-2.6-2.12-4.71-4.71-4.71s-4.71,2.12-4.71,4.71c0,2.43,1.85,4.41,4.21,4.66v43.43c-2.36.25-4.21,2.24-4.21,4.66,0,2.6,2.12,4.71,4.71,4.71s4.71-2.12,4.71-4.71c0-2.43-1.85-4.41-4.21-4.66ZM125.21,47.17c0-2.05,1.67-3.71,3.71-3.71s3.71,1.67,3.71,3.71-1.67,3.71-3.71,3.71-3.71-1.67-3.71-3.71ZM128.92,103.64c-2.05,0-3.71-1.67-3.71-3.71s1.67-3.71,3.71-3.71,3.71,1.67,3.71,3.71-1.67,3.71-3.71,3.71Z"/>
      </g>
    </g>
  </g>
</svg>